<?xml version="1.0" standalone="no"?>
<!DOCTYPE svg PUBLIC "-//W3C//DTD SVG 20010904//EN"
 "http://www.w3.org/TR/2001/REC-SVG-20010904/DTD/svg10.dtd">
<svg version="1.0" xmlns="http://www.w3.org/2000/svg"
 width="500.000000pt" height="500.000000pt" viewBox="0 0 500.000000 500.000000"
 preserveAspectRatio="xMidYMid meet">
<metadata>
Created by potrace 1.14, written by Peter Selinger 2001-2017
</metadata>
<g transform="translate(0.000000,500.000000) scale(0.100000,-0.100000)"
fill="#000000" stroke="none">
<path d="M2330 3859 c-189 -21 -382 -85 -528 -175 -96 -60 -235 -198 -285
-284 -155 -267 -117 -660 84 -875 76 -80 131 -121 236 -174 153 -77 278 -108
783 -196 486 -85 629 -200 618 -499 -3 -91 -7 -109 -36 -168 -82 -168 -269
-275 -538 -309 -127 -16 -349 -6 -477 21 -235 50 -489 160 -669 290 -53 38
-102 70 -108 70 -7 0 -10 -80 -10 -241 l0 -240 64 -29 c173 -79 458 -159 651
-185 570 -74 997 24 1278 294 118 114 199 259 234 425 18 87 13 282 -11 371
-71 264 -273 427 -651 526 -60 15 -245 53 -410 83 -336 62 -419 83 -508 127
-90 45 -139 89 -174 156 -78 147 -69 329 22 453 68 93 195 171 347 212 74 21
105 23 283 22 168 0 217 -4 305 -23 227 -48 478 -153 615 -256 33 -25 63 -45
67 -45 5 0 8 103 8 229 l0 230 -77 29 c-175 67 -396 123 -578 147 -150 19
-423 27 -535 14z"/>
</g>
</svg>
